<svg xmlns="http://www.w3.org/2000/svg" width="20.001" height="20"><path fill="none" d="M0 0h20v20H0z"/><path data-name="Icon Compartilhar-2" d="M3.001 3a2.5 2.5 0 0 1 2.5-2.5h10a4.5 4.5 0 0 1 4.5 4.5v10a4.5 4.5 0 0 1-4.5 4.5h-10a2.5 2.5 0 0 1-2.5-2.5v-1a.5.5 0 0 1 1 0v1a1.5 1.5 0 0 0 1.5 1.5h10a3.5 3.5 0 0 0 3.5-3.5V5a3.5 3.5 0 0 0-3.5-3.5h-10a1.5 1.5 0 0 0-1.5 1.5v1a.5.5 0 0 1-1 0Zm7.15 2.65a.5.5 0 0 1 .707 0l4 4a.5.5 0 0 1 0 .707l-4 4a.5.5 0 0 1-.707-.707l3.147-3.146H.501a.5.5 0 1 1 0-1h12.793L10.151 6.35a.5.5 0 0 1 0-.707Z" fill="#fff" fill-rule="evenodd"/></svg>